<?xml version="1.0" standalone="no"?>
<!DOCTYPE svg PUBLIC "-//W3C//DTD SVG 20010904//EN"
 "http://www.w3.org/TR/2001/REC-SVG-20010904/DTD/svg10.dtd">
<svg version="1.0" xmlns="http://www.w3.org/2000/svg"
 width="5120.000000pt" height="5120.000000pt" viewBox="0 0 5120.000000 5120.000000"
 preserveAspectRatio="xMidYMid meet">

<g transform="translate(0.000000,5120.000000) scale(0.100000,-0.100000)"
fill="#000000" stroke="none">
<path d="M26280 44793 c-230 -11 -559 -76 -809 -159 -734 -245 -1448 -777
-2039 -1517 -104 -130 -205 -271 -285 -397 -51 -80 -84 -173 -156 -445 -248
-924 -325 -1844 -235 -2785 53 -555 130 -989 375 -2099 210 -953 286 -1346
358 -1846 l37 -260 3179 0 3179 0 37 260 c73 509 140 856 349 1805 273 1241
340 1628 402 2330 20 223 17 967 -5 1195 -55 579 -168 1159 -323 1663 -32 103
-45 128 -137 265 -417 619 -998 1175 -1590 1521 -120 71 -390 201 -516 250
-317 124 -615 192 -946 215 -123 8 -722 11 -875 4z"/>
<path d="M14150 37458 c-834 -44 -1681 -543 -2343 -1379 -80 -101 -234 -323
-260 -374 -33 -66 -141 -467 -191 -715 -143 -704 -162 -1376 -60 -2140 47
-350 93 -591 259 -1350 162 -738 246 -1169 280 -1435 4 -27 9 -58 12 -67 4
-17 139 -18 2648 -18 l2644 0 5 33 c3 17 21 129 40 247 50 305 110 606 246
1225 134 610 187 872 229 1137 146 908 131 1650 -50 2475 -57 261 -135 536
-174 612 -98 195 -424 597 -681 840 -553 524 -1154 825 -1794 901 -111 13
-626 18 -810 8z"/>
<path d="M23614 33757 c-7 -1342 -253 -2816 -735 -4394 -27 -89 -49 -167 -49
-173 0 -7 1201 -10 3875 -10 2843 0 3875 3 3875 11 0 6 -27 100 -59 208 -354
1177 -592 2358 -676 3356 -32 379 -36 473 -42 893 l-6 432 -3091 0 -3091 0 -1
-323z"/>
<path d="M11940 28703 c0 -150 -20 -580 -35 -763 -64 -776 -218 -1580 -470
-2460 -41 -146 -78 -273 -81 -282 -5 -17 149 -18 3134 -18 1726 0 3141 2 3144
5 3 3 -12 65 -34 138 -344 1161 -517 2178 -544 3200 l-7 257 -2554 0 -2553 0
0 -77z"/>
<path d="M22366 27847 c-270 -733 -638 -1613 -1041 -2487 -130 -282 -413 -876
-510 -1070 -149 -297 -323 -1077 -404 -1805 -85 -765 -98 -1689 -36 -2645 152
-2336 747 -5220 1710 -8294 294 -941 640 -1935 709 -2038 53 -81 144 -161 228
-202 146 -71 -75 -66 2690 -66 l2497 0 -88 138 c-643 1002 -1049 2144 -1180
3312 -33 290 -41 423 -48 745 -38 1875 602 3692 1807 5130 322 384 732 785
1115 1091 433 344 852 613 1350 864 581 293 1144 497 1753 636 86 19 159 38
161 40 7 7 -18 629 -34 844 -48 641 -149 1262 -291 1783 -77 285 -94 331 -221
592 -592 1218 -1082 2341 -1444 3312 l-94 253 -4290 0 -4290 0 -49 -133z"/>
<path d="M10923 23943 c-8 -21 -28 -72 -43 -113 -52 -140 -252 -632 -365 -899
-198 -466 -447 -1009 -694 -1516 -135 -279 -152 -324 -227 -619 -219 -864
-286 -1930 -199 -3176 126 -1794 580 -4009 1301 -6340 197 -634 536 -1629 592
-1734 42 -80 164 -197 250 -240 142 -72 -101 -66 2984 -64 l2783 3 66 26 c37
14 88 38 115 54 67 39 162 132 201 197 74 123 466 1285 717 2123 414 1387 745
2786 950 4010 130 777 211 1476 258 2245 17 273 17 1186 0 1430 -46 667 -129
1167 -281 1699 -30 104 -61 179 -129 317 -386 776 -853 1843 -1124 2564 l-24
65 -3557 3 -3558 2 -16 -37z"/>
<path d="M34195 20740 c-1613 -116 -3088 -731 -4282 -1786 -146 -129 -450
-431 -587 -584 -930 -1033 -1540 -2319 -1750 -3690 -53 -345 -74 -589 -82
-955 -25 -1042 181 -2070 612 -3060 26 -60 98 -209 159 -330 1059 -2088 3069
-3530 5380 -3860 1434 -204 2898 27 4185 661 2042 1006 3484 2911 3894 5144
89 484 122 895 113 1420 -6 356 -13 456 -53 778 -294 2369 -1765 4447 -3903
5517 -807 403 -1625 636 -2570 731 -182 18 -924 27 -1116 14z m1140 -4389
c177 -36 344 -124 480 -253 99 -94 158 -172 214 -284 160 -319 137 -704 -58
-1001 -305 -462 -913 -596 -1381 -305 -89 55 -225 183 -286 268 -56 79 -126
226 -156 329 -20 71 -23 100 -22 260 0 206 14 272 83 420 53 114 102 186 189
277 143 150 329 252 532 293 100 20 299 18 405 -4z m1641 -2462 c331 -46 623
-260 769 -563 274 -572 -35 -1242 -652 -1413 -88 -25 -115 -28 -258 -28 -144
0 -170 3 -259 28 -416 115 -705 459 -745 885 -44 476 251 914 709 1056 143 44
287 56 436 35z m-2844 -568 c309 -81 565 -300 685 -585 140 -330 95 -710 -115
-992 -187 -251 -456 -395 -767 -411 -409 -20 -786 207 -959 578 -74 160 -91
237 -90 429 0 140 3 178 23 250 103 386 410 671 804 746 102 19 319 12 419
-15z"/>
</g>
</svg>
